solid OpenSCAD_Model
  facet normal 0 0 -1
    outer loop
      vertex 0 1.2 0
      vertex 1.2 0 0
      vertex 0 0 0
    endloop
  endfacet
  facet normal 0 0 -1
    outer loop
      vertex 14.7 0 0
      vertex 14.7 1.2 0
      vertex 15.5 1.2 0
    endloop
  endfacet
  facet normal 0 0 -1
    outer loop
      vertex 13.5 0 0
      vertex 14.7 1.2 0
      vertex 14.7 0 0
    endloop
  endfacet
  facet normal -0 0 -1
    outer loop
      vertex 14.7 1.2 0
      vertex 13.5 0 0
      vertex 13.5 5.79999 0
    endloop
  endfacet
  facet normal 0 0 -1
    outer loop
      vertex 14.7 1.2 0
      vertex 13.5 5.79999 0
      vertex 14.7 7 0
    endloop
  endfacet
  facet normal 0 0 -1
    outer loop
      vertex 1.2 5.79999 0
      vertex 14.7 7 0
      vertex 13.5 5.79999 0
    endloop
  endfacet
  facet normal 0 0 -1
    outer loop
      vertex 1.2 0 0
      vertex 0 1.2 0
      vertex 1.2 5.79999 0
    endloop
  endfacet
  facet normal 0 0 -1
    outer loop
      vertex 1.2 5.79999 0
      vertex 0 7 0
      vertex 14.7 7 0
    endloop
  endfacet
  facet normal 0 0 -1
    outer loop
      vertex 0 7 0
      vertex 1.2 5.79999 0
      vertex 0 1.2 0
    endloop
  endfacet
  facet normal 0 0 -1
    outer loop
      vertex 0 0 0
      vertex -0.799988 1.2 0
      vertex 0 1.2 0
    endloop
  endfacet
  facet normal -0 0 1
    outer loop
      vertex 13.5 5.79999 0.799999
      vertex 14.7 1.2 0.799999
      vertex 14.7 6.2 0.799999
    endloop
  endfacet
  facet normal 0 0 1
    outer loop
      vertex 13.5 0 0.799999
      vertex 14.7 1.2 0.799999
      vertex 13.5 5.79999 0.799999
    endloop
  endfacet
  facet normal 0 0 1
    outer loop
      vertex 14.7 6.2 0.799999
      vertex 1.2 5.79999 0.799999
      vertex 13.5 5.79999 0.799999
    endloop
  endfacet
  facet normal -0 0 1
    outer loop
      vertex 0 6.2 0.799999
      vertex 1.2 5.79999 0.799999
      vertex 14.7 6.2 0.799999
    endloop
  endfacet
  facet normal 0 0 1
    outer loop
      vertex 0 1.2 0.799999
      vertex 1.2 5.79999 0.799999
      vertex 0 6.2 0.799999
    endloop
  endfacet
  facet normal 0 0 1
    outer loop
      vertex 1.2 5.79999 0.799999
      vertex 0 1.2 0.799999
      vertex 1.2 0 0.799999
    endloop
  endfacet
  facet normal 0 0 1
    outer loop
      vertex 0 1.2 0.799999
      vertex 0 0 0.799999
      vertex 1.2 0 0.799999
    endloop
  endfacet
  facet normal 0 -0 1
    outer loop
      vertex 0 0 0.799999
      vertex 0 1.2 0.799999
      vertex -0.799988 1.2 0.799999
    endloop
  endfacet
  facet normal 0 0 1
    outer loop
      vertex 15.5 1.2 0.799999
      vertex 14.7 1.2 0.799999
      vertex 14.7 0 0.799999
    endloop
  endfacet
  facet normal 0 0 1
    outer loop
      vertex 14.7 1.2 0.799999
      vertex 13.5 0 0.799999
      vertex 14.7 0 0.799999
    endloop
  endfacet
  facet normal 0 1 -0
    outer loop
      vertex 15.5 1.2 0
      vertex 14.7 1.2 0.799999
      vertex 15.5 1.2 0.799999
    endloop
  endfacet
  facet normal 0 1 0
    outer loop
      vertex 14.7 1.2 0.799999
      vertex 15.5 1.2 0
      vertex 14.7 1.2 0
    endloop
  endfacet
  facet normal 1 0 0
    outer loop
      vertex 14.7 6.2 0.799999
      vertex 14.7 7 1.39999
      vertex 14.7 6.2 1.39999
    endloop
  endfacet
  facet normal 1 0 0
    outer loop
      vertex 14.7 7 1.39999
      vertex 14.7 6.2 0.799999
      vertex 14.7 7 0
    endloop
  endfacet
  facet normal 1 0 0
    outer loop
      vertex 14.7 1.2 0
      vertex 14.7 6.2 0.799999
      vertex 14.7 1.2 0.799999
    endloop
  endfacet
  facet normal 1 0 0
    outer loop
      vertex 14.7 6.2 0.799999
      vertex 14.7 1.2 0
      vertex 14.7 7 0
    endloop
  endfacet
  facet normal 0 1 0
    outer loop
      vertex 15.5 7 3.79999
      vertex 14.3 7 2.79999
      vertex 14.3 7 3.79999
    endloop
  endfacet
  facet normal 0 1 0
    outer loop
      vertex 14.7 7 1.39999
      vertex 9.5 7 2.79999
      vertex 14.3 7 2.79999
    endloop
  endfacet
  facet normal 0 1 0
    outer loop
      vertex 9.5 7 2.79999
      vertex 14.7 7 0
      vertex 5.2 7 2.79999
    endloop
  endfacet
  facet normal 0 1 -0
    outer loop
      vertex 14.7 7 1.39999
      vertex 14.3 7 2.79999
      vertex 15.5 7 1.39999
    endloop
  endfacet
  facet normal 0 1 -0
    outer loop
      vertex 15.5 7 1.39999
      vertex 14.3 7 2.79999
      vertex 15.5 7 3.79999
    endloop
  endfacet
  facet normal 0 1 0
    outer loop
      vertex 9.5 7 2.79999
      vertex 5.59999 7 3.89999
      vertex 9.09999 7 3.89999
    endloop
  endfacet
  facet normal 0 1 0
    outer loop
      vertex 5.59999 7 3.89999
      vertex 9.5 7 2.79999
      vertex 5.2 7 2.79999
    endloop
  endfacet
  facet normal 0 1 -0
    outer loop
      vertex 0.399994 7 2.79999
      vertex -0.799988 7 3.79999
      vertex 0.399994 7 3.79999
    endloop
  endfacet
  facet normal 0 1 0
    outer loop
      vertex 9.5 7 2.79999
      vertex 14.7 7 1.39999
      vertex 14.7 7 0
    endloop
  endfacet
  facet normal 0 1 0
    outer loop
      vertex 0 7 0
      vertex 5.2 7 2.79999
      vertex 14.7 7 0
    endloop
  endfacet
  facet normal 0 1 0
    outer loop
      vertex -0.799988 7 1.39999
      vertex 0.399994 7 2.79999
      vertex 0 7 1.39999
    endloop
  endfacet
  facet normal 0 1 0
    outer loop
      vertex 0.399994 7 2.79999
      vertex -0.799988 7 1.39999
      vertex -0.799988 7 3.79999
    endloop
  endfacet
  facet normal -0 1 0
    outer loop
      vertex 0 7 1.39999
      vertex 5.2 7 2.79999
      vertex 0 7 0
    endloop
  endfacet
  facet normal 0 1 0
    outer loop
      vertex 5.2 7 2.79999
      vertex 0 7 1.39999
      vertex 0.399994 7 2.79999
    endloop
  endfacet
  facet normal -1 0 0
    outer loop
      vertex 0 7 0
      vertex 0 6.2 0.799999
      vertex 0 7 1.39999
    endloop
  endfacet
  facet normal -1 0 0
    outer loop
      vertex 0 1.2 0
      vertex 0 6.2 0.799999
      vertex 0 7 0
    endloop
  endfacet
  facet normal -1 -0 0
    outer loop
      vertex 0 6.2 0.799999
      vertex 0 1.2 0
      vertex 0 1.2 0.799999
    endloop
  endfacet
  facet normal -1 -0 0
    outer loop
      vertex 0 7 1.39999
      vertex 0 6.2 0.799999
      vertex 0 6.2 1.39999
    endloop
  endfacet
  facet normal 0 1 -0
    outer loop
      vertex 0 1.2 0
      vertex -0.799988 1.2 0.799999
      vertex 0 1.2 0.799999
    endloop
  endfacet
  facet normal 0 1 0
    outer loop
      vertex -0.799988 1.2 0.799999
      vertex 0 1.2 0
      vertex -0.799988 1.2 0
    endloop
  endfacet
  facet normal -0.832054 -0.554695 0
    outer loop
      vertex 0 0 0
      vertex -0.799988 1.2 0.799999
      vertex -0.799988 1.2 0
    endloop
  endfacet
  facet normal -0.832054 -0.554695 0
    outer loop
      vertex -0.799988 1.2 0.799999
      vertex 0 0 0
      vertex 0 0 0.799999
    endloop
  endfacet
  facet normal 0 -1 0
    outer loop
      vertex 0 0 0
      vertex 1.2 0 0.799999
      vertex 0 0 0.799999
    endloop
  endfacet
  facet normal 0 -1 -0
    outer loop
      vertex 1.2 0 0.799999
      vertex 0 0 0
      vertex 1.2 0 0
    endloop
  endfacet
  facet normal 1 -0 0
    outer loop
      vertex 1.2 0 0.799999
      vertex 1.2 5.79999 0
      vertex 1.2 5.79999 0.799999
    endloop
  endfacet
  facet normal 1 0 0
    outer loop
      vertex 1.2 5.79999 0
      vertex 1.2 0 0.799999
      vertex 1.2 0 0
    endloop
  endfacet
  facet normal 0 -1 0
    outer loop
      vertex 1.2 5.79999 0
      vertex 13.5 5.79999 0.799999
      vertex 1.2 5.79999 0.799999
    endloop
  endfacet
  facet normal 0 -1 -0
    outer loop
      vertex 13.5 5.79999 0.799999
      vertex 1.2 5.79999 0
      vertex 13.5 5.79999 0
    endloop
  endfacet
  facet normal -1 0 0
    outer loop
      vertex 13.5 0 0
      vertex 13.5 5.79999 0.799999
      vertex 13.5 5.79999 0
    endloop
  endfacet
  facet normal -1 -0 0
    outer loop
      vertex 13.5 5.79999 0.799999
      vertex 13.5 0 0
      vertex 13.5 0 0.799999
    endloop
  endfacet
  facet normal 0 -1 0
    outer loop
      vertex 13.5 0 0
      vertex 14.7 0 0.799999
      vertex 13.5 0 0.799999
    endloop
  endfacet
  facet normal 0 -1 -0
    outer loop
      vertex 14.7 0 0.799999
      vertex 13.5 0 0
      vertex 14.7 0 0
    endloop
  endfacet
  facet normal 0.832054 -0.554695 0
    outer loop
      vertex 14.7 0 0.799999
      vertex 15.5 1.2 0
      vertex 15.5 1.2 0.799999
    endloop
  endfacet
  facet normal 0.832054 -0.554695 0
    outer loop
      vertex 15.5 1.2 0
      vertex 14.7 0 0.799999
      vertex 14.7 0 0
    endloop
  endfacet
  facet normal 0 -1 0
    outer loop
      vertex -0.799988 6.2 3.79999
      vertex 0.399994 6.2 2.79999
      vertex 0.399994 6.2 3.79999
    endloop
  endfacet
  facet normal 0 -1 0
    outer loop
      vertex 0 6.2 1.39999
      vertex 5.2 6.2 2.79999
      vertex 0.399994 6.2 2.79999
    endloop
  endfacet
  facet normal 0 -1 -0
    outer loop
      vertex 5.2 6.2 2.79999
      vertex 0 6.2 0.799999
      vertex 9.5 6.2 2.79999
    endloop
  endfacet
  facet normal 0 -1 0
    outer loop
      vertex 0 6.2 1.39999
      vertex 0.399994 6.2 2.79999
      vertex -0.799988 6.2 1.39999
    endloop
  endfacet
  facet normal 0 -1 0
    outer loop
      vertex -0.799988 6.2 1.39999
      vertex 0.399994 6.2 2.79999
      vertex -0.799988 6.2 3.79999
    endloop
  endfacet
  facet normal 0 -1 0
    outer loop
      vertex 5.2 6.2 2.79999
      vertex 9.09999 6.2 3.89999
      vertex 5.59999 6.2 3.89999
    endloop
  endfacet
  facet normal 0 -1 -0
    outer loop
      vertex 9.09999 6.2 3.89999
      vertex 5.2 6.2 2.79999
      vertex 9.5 6.2 2.79999
    endloop
  endfacet
  facet normal 0 -1 0
    outer loop
      vertex 14.3 6.2 2.79999
      vertex 15.5 6.2 3.79999
      vertex 14.3 6.2 3.79999
    endloop
  endfacet
  facet normal 0 -1 0
    outer loop
      vertex 5.2 6.2 2.79999
      vertex 0 6.2 1.39999
      vertex 0 6.2 0.799999
    endloop
  endfacet
  facet normal 0 -1 0
    outer loop
      vertex 14.7 6.2 0.799999
      vertex 9.5 6.2 2.79999
      vertex 0 6.2 0.799999
    endloop
  endfacet
  facet normal 0 -1 0
    outer loop
      vertex 15.5 6.2 1.39999
      vertex 14.3 6.2 2.79999
      vertex 14.7 6.2 1.39999
    endloop
  endfacet
  facet normal 0 -1 0
    outer loop
      vertex 14.3 6.2 2.79999
      vertex 15.5 6.2 1.39999
      vertex 15.5 6.2 3.79999
    endloop
  endfacet
  facet normal -0 -1 -0
    outer loop
      vertex 14.7 6.2 1.39999
      vertex 9.5 6.2 2.79999
      vertex 14.7 6.2 0.799999
    endloop
  endfacet
  facet normal 0 -1 0
    outer loop
      vertex 9.5 6.2 2.79999
      vertex 14.7 6.2 1.39999
      vertex 14.3 6.2 2.79999
    endloop
  endfacet
  facet normal 0 0 -1
    outer loop
      vertex 14.7 6.2 1.39999
      vertex 15.5 7 1.39999
      vertex 15.5 6.2 1.39999
    endloop
  endfacet
  facet normal -0 0 -1
    outer loop
      vertex 15.5 7 1.39999
      vertex 14.7 6.2 1.39999
      vertex 14.7 7 1.39999
    endloop
  endfacet
  facet normal 1 -0 0
    outer loop
      vertex 15.5 6.2 3.79999
      vertex 15.5 7 1.39999
      vertex 15.5 7 3.79999
    endloop
  endfacet
  facet normal 1 0 0
    outer loop
      vertex 15.5 7 1.39999
      vertex 15.5 6.2 3.79999
      vertex 15.5 6.2 1.39999
    endloop
  endfacet
  facet normal -0 0 1
    outer loop
      vertex 14.3 7 3.79999
      vertex 15.5 6.2 3.79999
      vertex 15.5 7 3.79999
    endloop
  endfacet
  facet normal 0 0 1
    outer loop
      vertex 15.5 6.2 3.79999
      vertex 14.3 7 3.79999
      vertex 14.3 6.2 3.79999
    endloop
  endfacet
  facet normal -1 0 0
    outer loop
      vertex 14.3 6.2 2.79999
      vertex 14.3 7 3.79999
      vertex 14.3 7 2.79999
    endloop
  endfacet
  facet normal -1 -0 0
    outer loop
      vertex 14.3 7 3.79999
      vertex 14.3 6.2 2.79999
      vertex 14.3 6.2 3.79999
    endloop
  endfacet
  facet normal -0 0 1
    outer loop
      vertex 9.5 7 2.79999
      vertex 14.3 6.2 2.79999
      vertex 14.3 7 2.79999
    endloop
  endfacet
  facet normal 0 0 1
    outer loop
      vertex 14.3 6.2 2.79999
      vertex 9.5 7 2.79999
      vertex 9.5 6.2 2.79999
    endloop
  endfacet
  facet normal 0.939792 -0 0.341748
    outer loop
      vertex 9.09999 6.2 3.89999
      vertex 9.5 7 2.79999
      vertex 9.09999 7 3.89999
    endloop
  endfacet
  facet normal 0.939792 0 0.341748
    outer loop
      vertex 9.5 7 2.79999
      vertex 9.09999 6.2 3.89999
      vertex 9.5 6.2 2.79999
    endloop
  endfacet
  facet normal -0 0 1
    outer loop
      vertex 5.59999 7 3.89999
      vertex 9.09999 6.2 3.89999
      vertex 9.09999 7 3.89999
    endloop
  endfacet
  facet normal 0 0 1
    outer loop
      vertex 9.09999 6.2 3.89999
      vertex 5.59999 7 3.89999
      vertex 5.59999 6.2 3.89999
    endloop
  endfacet
  facet normal -0.939796 0 0.341737
    outer loop
      vertex 5.2 6.2 2.79999
      vertex 5.59999 7 3.89999
      vertex 5.2 7 2.79999
    endloop
  endfacet
  facet normal -0.939796 0 0.341737
    outer loop
      vertex 5.59999 7 3.89999
      vertex 5.2 6.2 2.79999
      vertex 5.59999 6.2 3.89999
    endloop
  endfacet
  facet normal -0 0 1
    outer loop
      vertex 0.399994 7 2.79999
      vertex 5.2 6.2 2.79999
      vertex 5.2 7 2.79999
    endloop
  endfacet
  facet normal 0 0 1
    outer loop
      vertex 5.2 6.2 2.79999
      vertex 0.399994 7 2.79999
      vertex 0.399994 6.2 2.79999
    endloop
  endfacet
  facet normal 1 -0 0
    outer loop
      vertex 0.399994 6.2 3.79999
      vertex 0.399994 7 2.79999
      vertex 0.399994 7 3.79999
    endloop
  endfacet
  facet normal 1 0 0
    outer loop
      vertex 0.399994 7 2.79999
      vertex 0.399994 6.2 3.79999
      vertex 0.399994 6.2 2.79999
    endloop
  endfacet
  facet normal -0 0 1
    outer loop
      vertex -0.799988 7 3.79999
      vertex 0.399994 6.2 3.79999
      vertex 0.399994 7 3.79999
    endloop
  endfacet
  facet normal 0 0 1
    outer loop
      vertex 0.399994 6.2 3.79999
      vertex -0.799988 7 3.79999
      vertex -0.799988 6.2 3.79999
    endloop
  endfacet
  facet normal -1 0 0
    outer loop
      vertex -0.799988 6.2 1.39999
      vertex -0.799988 7 3.79999
      vertex -0.799988 7 1.39999
    endloop
  endfacet
  facet normal -1 -0 0
    outer loop
      vertex -0.799988 7 3.79999
      vertex -0.799988 6.2 1.39999
      vertex -0.799988 6.2 3.79999
    endloop
  endfacet
  facet normal 0 0 -1
    outer loop
      vertex -0.799988 6.2 1.39999
      vertex 0 7 1.39999
      vertex 0 6.2 1.39999
    endloop
  endfacet
  facet normal -0 0 -1
    outer loop
      vertex 0 7 1.39999
      vertex -0.799988 6.2 1.39999
      vertex -0.799988 7 1.39999
    endloop
  endfacet
endsolid OpenSCAD_Model
